<svg xmlns="http://www.w3.org/2000/svg" viewBox="0 0 608.5 500.69"><defs><style>.cls-1{fill:#6dadde;stroke:#fff;stroke-miterlimit:10;}</style></defs><title>ds16</title><g id="Layer_2" data-name="Layer 2"><g id="Layer_1-2" data-name="Layer 1"><polygon class="cls-1" points="478.33 101.03 304.58 0.72 304.33 0.58 130.33 101.03 130.73 101.27 130.69 101.29 304.33 401.68 477.69 101.4 478.33 101.03"/><polygon class="cls-1" points="304.33 1.73 476.33 101.03 304.33 200.34 132.33 101.03 304.33 1.73"/><polygon class="cls-1" points="303.62 201.09 303.83 398.81 132.39 102.22 303.62 201.09"/><polygon class="cls-1" points="304.83 398.81 304.63 201.32 475.96 102.4 304.83 398.81"/><polygon class="cls-1" points="607.08 424.67 607.09 424.66 477.68 200.79 477.25 200.04 347.63 424.55 347 424.91 477 499.97 477.25 500.11 606.75 425.34 607.5 424.91 607.08 424.67"/><polygon class="cls-1" points="476.9 349.91 349.36 423.55 476.75 202.9 476.9 349.91"/><polygon class="cls-1" points="477.9 350.09 477.75 202.91 605.37 423.68 477.9 350.09"/><polygon class="cls-1" points="477.25 498.96 349 424.91 477.25 350.86 605.5 424.91 477.25 498.96"/><polygon class="cls-1" points="261.09 424.57 131.69 200.7 131.25 199.95 1.63 424.45 1 424.82 131 499.88 131.25 500.02 260.75 425.25 261.5 424.82 261.08 424.57 261.09 424.57"/><polygon class="cls-1" points="130.91 349.82 3.37 423.45 130.75 202.81 130.91 349.82"/><polygon class="cls-1" points="131.91 349.99 131.75 202.81 259.37 423.59 131.91 349.99"/><polygon class="cls-1" points="131.25 498.87 3 424.82 131.25 350.77 259.5 424.82 131.25 498.87"/></g></g></svg>